<svg width="23" height="21" viewBox="0 0 23 21" fill="none" xmlns="http://www.w3.org/2000/svg">
<path fill-rule="evenodd" clip-rule="evenodd" d="M6.38545 20.3816C6.29268 20.3755 6.19966 20.3705 6.10689 20.3624C5.58708 20.3152 5.11046 20.1514 4.68725 19.8551C3.95711 19.344 3.4902 18.6643 3.30415 17.8089C3.23464 17.4875 3.21522 17.1631 3.23643 16.8357C3.26045 16.4515 3.33967 16.079 3.46592 15.7145C3.66756 15.1329 3.97168 14.6052 4.35655 14.1187C4.64661 13.7521 4.97501 13.42 5.33688 13.1188C5.6755 12.8367 5.98294 12.5251 6.27096 12.1953C6.63335 11.7795 6.96123 11.3387 7.28503 10.895C7.57126 10.5026 7.85263 10.1078 8.15649 9.72856C8.38496 9.44245 8.62596 9.16697 8.89455 8.91521C9.23062 8.60069 9.60143 8.33435 10.0384 8.16165C10.3663 8.03194 10.707 7.96326 11.0615 7.95609C11.4622 7.9472 11.858 7.98549 12.2478 8.07765C12.8443 8.21922 13.361 8.49964 13.8059 8.9078C14.1103 9.18822 14.3679 9.50546 14.6074 9.83752C14.8614 10.1896 15.0947 10.5545 15.3355 10.9152C15.6069 11.3214 15.887 11.7212 16.2 12.0992C16.5118 12.476 16.8558 12.8236 17.2315 13.1416C17.6859 13.5262 18.0891 13.9544 18.4326 14.4352C18.7255 14.8476 18.9642 15.2861 19.1308 15.76C19.2606 16.1291 19.3421 16.5066 19.3629 16.8967C19.3948 17.4892 19.289 18.0557 19.0109 18.5887C18.7536 19.0826 18.381 19.4791 17.9131 19.7941C17.5691 20.0256 17.198 20.2015 16.7893 20.2994C16.6447 20.3345 16.4978 20.3597 16.3493 20.3735C16.3286 20.3755 16.3086 20.3792 16.2887 20.3821C16.2693 20.3928 16.2478 20.3849 16.2274 20.3873C16.2105 20.3896 16.1926 20.3821 16.1765 20.3925C16.0498 20.3925 15.9225 20.3925 15.7957 20.3925C15.7806 20.3819 15.7635 20.3893 15.7474 20.3873C15.7326 20.3873 15.7185 20.3873 15.704 20.3873C15.692 20.3873 15.6789 20.3873 15.6672 20.3873C15.3424 20.3772 15.027 20.3117 14.7127 20.2413C14.1801 20.1212 13.658 19.9634 13.1282 19.8329C12.6991 19.7277 12.2664 19.6422 11.8261 19.5935C11.521 19.5597 11.215 19.5559 10.9099 19.5661C10.6658 19.574 10.4236 19.6103 10.1836 19.6535C9.70979 19.7398 9.24544 19.8631 8.78083 19.9856C8.28938 20.116 7.79794 20.2458 7.29474 20.3253C7.09003 20.3572 6.88508 20.3846 6.67705 20.3826C6.63437 20.3821 6.59195 20.3883 6.54876 20.3873C6.49381 20.3844 6.43963 20.3938 6.38545 20.3816ZM15.774 0.00889446C16.4589 0.0884504 16.982 0.424957 17.3817 0.95566C17.6557 1.31959 17.828 1.72775 17.9348 2.16407C18.026 2.53986 18.0605 2.92133 18.0475 3.30726C18.0235 4.01634 17.8512 4.68985 17.5328 5.32877C17.3122 5.77151 17.0275 6.17078 16.6646 6.51519C16.3414 6.82131 15.9756 7.0659 15.5489 7.21835C15.2491 7.32533 14.9409 7.3782 14.6214 7.35992C14.0684 7.32903 13.5989 7.11655 13.2043 6.74546C12.868 6.42872 12.6388 6.04576 12.4801 5.62179C12.3692 5.32531 12.2999 5.01969 12.2639 4.70714C12.2388 4.49294 12.2289 4.27848 12.236 4.06403C12.2524 3.55778 12.3464 3.06488 12.5166 2.58631C12.6973 2.07686 12.9534 1.60718 13.303 1.18716C13.5971 0.833855 13.9409 0.53515 14.3533 0.314518C14.6564 0.152194 14.9792 0.04719 15.3247 0.00938859C15.3352 0.00370602 15.3467 0.00617671 15.3574 0.0054355H15.3902C15.406 0.00345896 15.4229 0.010871 15.4369 0H15.6613C15.6759 0.0111181 15.6922 0.00370602 15.7081 0.0054355H15.741C15.7515 0.00568257 15.7633 0.00296482 15.774 0.00889446ZM0.0207005 7.82737C0.031434 7.62527 0.0690015 7.42687 0.123947 7.23169C0.230261 6.85244 0.404298 6.50679 0.675448 6.2108C0.978544 5.88047 1.3532 5.66676 1.80196 5.58053C2.16639 5.51086 2.52597 5.54075 2.87941 5.646C3.28575 5.76731 3.64507 5.97362 3.96452 6.24218C4.46082 6.65799 4.81656 7.16967 5.06292 7.75523C5.19173 8.06184 5.28092 8.37932 5.33024 8.70669C5.35426 8.86555 5.36576 9.0254 5.36909 9.186C5.37496 9.49088 5.34327 9.79082 5.26507 10.0858C5.1608 10.4794 4.98523 10.8376 4.70539 11.1443C4.38415 11.4961 3.98369 11.715 3.50374 11.7903C3.15158 11.8457 2.8053 11.8084 2.46642 11.7026C2.01076 11.5596 1.62026 11.314 1.27627 10.996C0.940721 10.6867 0.67417 10.3275 0.466399 9.92794C0.262717 9.53609 0.122158 9.12299 0.0544345 8.6884C0.0426787 8.61156 0.0329674 8.53473 0.0222338 8.45813C0.0138003 8.42305 0.0171226 8.38723 0.00843352 8.35239C0.00434454 8.33781 0.00664459 8.32398 0.00587791 8.3089C0.00306674 8.29037 0.0117558 8.27061 0 8.25208C0 8.15819 0 8.06455 0 7.97042C0.0181448 7.94473 0.0092002 7.91607 0.0112447 7.88864C0.0127781 7.86813 0.00741128 7.84639 0.0207005 7.82737ZM4.82934 3.30948C4.83164 2.75036 4.91393 2.2461 5.10739 1.76086C5.25332 1.39396 5.45368 1.05844 5.73275 0.769618C6.03329 0.457817 6.39031 0.234221 6.82093 0.12897C7.25155 0.0232244 7.67476 0.0533667 8.09081 0.19889C8.45729 0.327365 8.77699 0.529961 9.06092 0.785677C9.51429 1.19334 9.83885 1.6855 10.0701 2.2372C10.2171 2.58804 10.3183 2.95074 10.376 3.32455C10.4088 3.53653 10.4277 3.75025 10.4323 3.96545C10.4371 4.23623 10.4195 4.50603 10.3732 4.77336C10.2771 5.33198 10.0811 5.85231 9.73152 6.31235C9.51403 6.59771 9.25004 6.83366 8.92599 7.00364C8.56386 7.19339 8.17617 7.2727 7.766 7.24206C7.39518 7.21464 7.05323 7.09753 6.73429 6.9147C6.31824 6.67653 5.98141 6.35534 5.70106 5.97732C5.36857 5.5284 5.1401 5.03204 4.99546 4.49862C4.91623 4.20683 4.86563 3.9101 4.84263 3.60917C4.83343 3.49626 4.82551 3.38261 4.82934 3.30948ZM23 8.15498V8.21996C22.9744 8.75906 22.8252 9.26654 22.5842 9.75055C22.3946 10.1298 22.1526 10.4754 21.853 10.7818C21.4687 11.1756 21.0227 11.4827 20.4924 11.6671C20.1748 11.7775 19.8477 11.8319 19.5095 11.8138C19.0104 11.7866 18.5747 11.6117 18.2082 11.2826C17.9056 11.0106 17.706 10.6761 17.5803 10.2995C17.4671 9.96204 17.4214 9.61417 17.4329 9.25987C17.4576 8.48086 17.7124 7.77277 18.1538 7.12471C18.3028 6.90531 18.4738 6.70271 18.6654 6.51741C19.0598 6.13767 19.5106 5.84563 20.0444 5.6801C20.348 5.58671 20.6583 5.54396 20.9762 5.56793C21.4618 5.60425 21.8852 5.78189 22.2405 6.1058C22.5609 6.39808 22.7631 6.75905 22.8853 7.16424C22.9527 7.38808 22.9921 7.61711 23 7.85059V7.91607C22.9974 7.99562 22.9977 8.07518 23 8.15498Z" fill="#FFD0EC"/>
</svg>
