<svg width="21" height="20" viewBox="0 0 21 20" fill="none" xmlns="http://www.w3.org/2000/svg">
<path d="M8.24515 13.5498C10.0447 13.4338 11.8526 13.4338 13.6522 13.5498C14.6322 13.5955 15.6075 13.6936 16.572 13.8434C18.6591 14.1815 20.0217 14.7331 20.6056 15.6228C21.0442 16.3171 21.0442 17.1437 20.6056 17.8381C20.0217 18.7278 18.7132 19.3149 16.5504 19.6174C15.5866 19.7729 14.6111 19.874 13.6306 19.9199C12.7222 20 11.8138 20 10.8946 20H9.24004C8.89399 19.9644 8.55876 19.9466 8.23434 19.9466C7.25379 19.9063 6.27803 19.8082 5.31454 19.653C3.22742 19.3327 1.86485 18.7633 1.28089 17.8737C1.05546 17.529 0.936613 17.144 0.934701 16.7527C0.93014 16.3589 1.04539 15.9705 1.27007 15.6228C1.84322 14.7331 3.20579 14.1548 5.31454 13.8434C6.28227 13.6915 7.26137 13.5934 8.24515 13.5498ZM10.9379 0C14.5631 0 17.502 2.41782 17.502 5.40036C17.502 8.38289 14.5631 10.8007 10.9379 10.8007C7.31258 10.8007 4.37371 8.38289 4.37371 5.40036C4.37371 2.41782 7.31258 0 10.9379 0Z" fill="#FFD0EC"/>
</svg>
