<svg width="34" height="34" viewBox="0 0 34 34" fill="none" xmlns="http://www.w3.org/2000/svg">
<path d="M25.7124 12.9551L25.2874 25.8188C25.2512 26.9205 24.7871 27.9647 23.9936 28.7299C23.2001 29.495 22.1397 29.9208 21.0374 29.9169H12.9624C11.8609 29.9208 10.8011 29.4956 10.0077 28.7314C9.21429 27.9672 8.74972 26.924 8.71244 25.8231L8.28744 12.9551C8.27814 12.6733 8.38116 12.3994 8.57384 12.1935C8.76653 11.9877 9.03308 11.8668 9.31488 11.8575C9.59667 11.8482 9.87061 11.9513 10.0764 12.144C10.2823 12.3366 10.4031 12.6032 10.4124 12.885L10.8374 25.7519C10.8586 26.3011 11.0918 26.8209 11.488 27.2018C11.8843 27.5828 12.4127 27.7955 12.9624 27.795H21.0374C21.5878 27.7954 22.1169 27.5822 22.5133 27.2003C22.9096 26.8184 23.1423 26.2976 23.1624 25.7476L23.5874 12.885C23.5967 12.6032 23.7176 12.3366 23.9234 12.144C24.1293 11.9513 24.4032 11.8482 24.685 11.8575C24.9668 11.8668 25.2333 11.9877 25.426 12.1935C25.6187 12.3994 25.7217 12.6733 25.7124 12.9551ZM27.1181 8.6743C27.1181 8.95609 27.0062 9.22634 26.8069 9.4256C26.6077 9.62486 26.3374 9.7368 26.0556 9.7368H7.94531C7.66352 9.7368 7.39327 9.62486 7.19401 9.4256C6.99475 9.22634 6.88281 8.95609 6.88281 8.6743C6.88281 8.39251 6.99475 8.12226 7.19401 7.923C7.39327 7.72374 7.66352 7.6118 7.94531 7.6118H11.2391C11.5757 7.61271 11.9007 7.48833 12.1507 7.26287C12.4007 7.03741 12.5579 6.727 12.5916 6.39205C12.67 5.60631 13.0382 4.87791 13.6243 4.34876C14.2104 3.81961 14.9725 3.52762 15.7621 3.52967H18.2378C19.0274 3.52762 19.7895 3.81961 20.3756 4.34876C20.9617 4.87791 21.3298 5.60631 21.4082 6.39205C21.442 6.727 21.5992 7.03741 21.8492 7.26287C22.0992 7.48833 22.4242 7.61271 22.7608 7.6118H26.0546C26.3364 7.6118 26.6066 7.72374 26.8059 7.923C27.0051 8.12226 27.1171 8.39251 27.1171 8.6743H27.1181ZM14.4361 7.6118H19.5659C19.4263 7.29278 19.3349 6.95473 19.2949 6.6088C19.2686 6.3469 19.146 6.1041 18.9509 5.92743C18.7558 5.75076 18.502 5.65281 18.2388 5.65255H15.7632C15.5 5.65281 15.2462 5.75076 15.0511 5.92743C14.856 6.1041 14.7334 6.3469 14.7071 6.6088C14.6667 6.95479 14.5761 7.29283 14.4361 7.6118ZM15.5061 23.7097V14.6625C15.5061 14.3808 15.3941 14.1105 15.1949 13.9112C14.9956 13.712 14.7254 13.6 14.4436 13.6C14.1618 13.6 13.8915 13.712 13.6923 13.9112C13.493 14.1105 13.3811 14.3808 13.3811 14.6625V23.714C13.3811 23.9958 13.493 24.266 13.6923 24.4653C13.8915 24.6645 14.1618 24.7765 14.4436 24.7765C14.7254 24.7765 14.9956 24.6645 15.1949 24.4653C15.3941 24.266 15.5061 23.9958 15.5061 23.714V23.7097ZM20.6209 23.7097V14.6625C20.6209 14.3808 20.509 14.1105 20.3097 13.9112C20.1105 13.712 19.8402 13.6 19.5584 13.6C19.2766 13.6 19.0064 13.712 18.8071 13.9112C18.6079 14.1105 18.4959 14.3808 18.4959 14.6625V23.714C18.4959 23.9958 18.6079 24.266 18.8071 24.4653C19.0064 24.6645 19.2766 24.7765 19.5584 24.7765C19.8402 24.7765 20.1105 24.6645 20.3097 24.4653C20.509 24.266 20.6209 23.9958 20.6209 23.714V23.7097Z" fill="#FFD0EC"/>
</svg>
