<svg width="24" height="20" viewBox="0 0 24 20" fill="none" xmlns="http://www.w3.org/2000/svg">
<path d="M18.0816 17.617C18.0816 18.9362 19.3051 20 20.8221 20C22.3391 20 23.5625 18.9362 23.5625 17.617C23.5625 16.4255 22.5838 15.4468 21.3114 15.2766V5.44681C21.3114 4.38298 20.3327 3.53191 19.1093 3.53191C17.8859 3.53191 16.9072 4.38298 16.9072 5.44681V11.7872C16.9072 12.4255 16.3199 12.9362 15.5859 12.9362C14.3136 12.9362 13.2859 13.8298 13.2859 14.9362V16.8085C13.2859 18.1277 12.0625 19.1915 10.5455 19.1915C9.02846 19.1915 7.80505 18.1277 7.80505 16.8085V12.1702C11.2795 11.9574 14.0199 9.40426 14.0199 6.34043V1.91489C14.0199 0.851064 13.0412 0 11.8178 0V0.851064C12.5029 0.851064 13.0412 1.31915 13.0412 1.91489V6.34043C13.0412 9.10638 10.4476 11.3617 7.26676 11.3617C4.0859 11.3617 1.54122 9.06383 1.54122 6.34043V1.91489C1.54122 1.31915 2.07952 0.851064 2.76463 0.851064V0C1.54122 0 0.5625 0.851064 0.5625 1.91489V6.34043C0.5625 9.44681 3.30293 11.9574 6.82633 12.1702V16.766C6.82633 18.5532 8.49016 20 10.5455 20C12.6008 20 14.2646 18.5532 14.2646 16.766V14.8936C14.2646 14.2553 14.8519 13.7447 15.5859 13.7447C16.8582 13.7447 17.8859 12.8511 17.8859 11.7447V5.44681C17.8859 4.85106 18.4242 4.38298 19.1093 4.38298C19.7944 4.38298 20.3327 4.85106 20.3327 5.44681V15.2766C19.0604 15.4468 18.0816 16.4255 18.0816 17.617ZM22.5838 17.617C22.5838 18.4681 21.8008 19.1489 20.8221 19.1489C19.8434 19.1489 19.0604 18.4681 19.0604 17.617C19.0604 16.766 19.8434 16.0851 20.8221 16.0851C21.8008 16.0851 22.5838 16.766 22.5838 17.617Z" fill="#FFD0EC"/>
</svg>
