<svg width="23" height="17" viewBox="0 0 23 17" fill="none" xmlns="http://www.w3.org/2000/svg">
<path d="M17.3301 1.86855C20.6312 2.80248 23 5.35582 23 8.35883C23 10.4029 21.9016 12.2402 20.159 13.4989L20.0074 13.6034L19.7661 13.7647L19.7415 13.7803C19.1296 14.217 19.5081 15.1361 20.075 15.8709L20.18 16.0023C20.2156 16.0453 20.2516 16.0875 20.288 16.1288L20.3981 16.2494L20.4956 16.3512L20.5687 16.4324C20.7884 16.6886 20.7669 16.7986 20.5054 16.7722L20.4197 16.7602C20.3733 16.7522 20.3215 16.7411 20.2642 16.727C19.6016 16.5645 19.0766 16.3635 18.643 16.1585L18.4493 16.0638C18.3867 16.0322 18.3262 16.0007 18.2675 15.9693L18.0967 15.8757L17.936 15.7838L17.3092 15.4116L17.1855 15.3426L17.0652 15.2802C16.7481 15.1232 16.4574 15.0448 16.1072 15.1094L16.0381 15.1239C15.5563 15.1931 15.0612 15.2294 14.5547 15.2294C14.2674 15.2294 13.9835 15.2177 13.7037 15.1949C17.327 13.8372 19.8412 10.8635 19.8412 7.41346C19.8412 5.33232 18.926 3.4244 17.4042 1.94017L17.3301 1.86855ZM9.28266 0C14.4092 0 18.5653 3.37169 18.5653 7.53001C18.5653 11.6891 14.4092 15.0608 9.28266 15.0608C8.81876 15.0608 8.36348 15.0332 7.91818 14.9801L7.64911 14.9444C7.27759 14.8588 6.96952 14.9169 6.64561 15.0593L6.52324 15.1165L6.39846 15.1809L6.27033 15.2518L5.92928 15.453L5.70579 15.5866L5.46431 15.727L5.29179 15.8232L5.10895 15.9206C5.07757 15.937 5.04571 15.9533 5.01337 15.9697L4.81332 16.0677C4.33214 16.2964 3.74775 16.5212 3.007 16.7023C2.96652 16.7123 2.9285 16.7209 2.89293 16.728L2.7936 16.7455C2.45643 16.7942 2.4167 16.6751 2.67611 16.3751L2.75428 16.2888L2.79893 16.2422C2.83591 16.2044 2.87284 16.1655 2.90955 16.1256L3.01893 16.0032L3.12617 15.8757L3.23039 15.744L3.3307 15.6086L3.42623 15.4705C3.4417 15.4473 3.45694 15.424 3.47192 15.4006L3.5586 15.2595C3.96138 14.5748 4.11884 13.8549 3.58154 13.4725L3.18994 13.2108L3.12269 13.164C1.2073 11.7844 0 9.77056 0 7.53001C0 3.37169 4.1553 0 9.28266 0Z" fill="#FFD0EC"/>
</svg>
