<svg width="23" height="20" viewBox="0 0 23 20" fill="none" xmlns="http://www.w3.org/2000/svg">
<path d="M0 9.92867C0 10.3852 0.374132 10.661 0.836903 10.661C1.12244 10.661 1.34887 10.5278 1.5458 10.3376L11.1554 1.88302C11.2637 1.77841 11.3818 1.74035 11.5098 1.74035C11.628 1.74035 11.7363 1.77841 11.8544 1.88302L21.4542 10.3376C21.6609 10.5278 21.8873 10.661 22.163 10.661C22.6257 10.661 23 10.3852 23 9.92867C23 9.64337 22.8917 9.46268 22.7046 9.30102L19.2978 6.30526V0.684737C19.2978 0.266266 19.0222 0 18.5891 0H17.2992C16.8758 0 16.5804 0.266266 16.5804 0.684737V3.9182L12.6815 0.475522C12.3369 0.161659 11.9135 0.00949505 11.5 0.00949505C11.0864 0.00949505 10.6729 0.161659 10.3185 0.475522L0.295365 9.30102C0.118171 9.46268 0 9.64337 0 9.92867ZM2.8159 17.9078C2.8159 19.2297 3.64298 20 5.03125 20H9.01878V13.2382C9.01878 12.8007 9.32402 12.5154 9.77696 12.5154H13.2525C13.7054 12.5154 14.0008 12.8007 14.0008 13.2382V20H17.9785C19.3668 20 20.1841 19.2297 20.1841 17.9078V10.9463L11.8249 3.67092C11.7166 3.57581 11.5984 3.52829 11.4803 3.52829C11.372 3.52829 11.2637 3.57581 11.1455 3.68046L2.8159 10.9938V17.9078Z" fill="#FFD0EC"/>
</svg>
