<svg width="32" height="32" viewBox="0 0 32 32" fill="none" xmlns="http://www.w3.org/2000/svg">
<path d="M23.0131 5.24915L26.7508 8.98507M25.4167 1.95794L15.3101 12.0645C14.7879 12.586 14.4318 13.2504 14.2866 13.9739L13.353 18.6469L18.026 17.7116C18.7496 17.5669 19.4131 17.2122 19.9354 16.6899L30.042 6.58328C30.3457 6.27958 30.5866 5.91903 30.751 5.52222C30.9154 5.12541 31 4.70011 31 4.27061C31 3.84111 30.9154 3.41581 30.751 3.019C30.5866 2.62219 30.3457 2.26164 30.042 1.95794C29.7383 1.65424 29.3778 1.41332 28.981 1.24896C28.5841 1.0846 28.1588 1 27.7293 1C27.2998 1 26.8745 1.0846 26.4777 1.24896C26.0809 1.41332 25.7204 1.65424 25.4167 1.95794Z" stroke="#FFD0EC" stroke-width="2" stroke-linecap="round" stroke-linejoin="round"/>
<path d="M27.4708 22.1764V27.4706C27.4708 28.4067 27.099 29.3044 26.4371 29.9663C25.7752 30.6282 24.8775 31 23.9414 31H4.52945C3.59338 31 2.69565 30.6282 2.03375 29.9663C1.37185 29.3044 1 28.4067 1 27.4706V8.05862C1 7.12255 1.37185 6.22483 2.03375 5.56293C2.69565 4.90103 3.59338 4.52917 4.52945 4.52917H9.82361" stroke="#FFD0EC" stroke-width="2" stroke-linecap="round" stroke-linejoin="round"/>
</svg>
