<svg width="86" height="85" viewBox="0 0 86 85" fill="none" xmlns="http://www.w3.org/2000/svg">
<path d="M30.4982 76.1786C29.7644 76.1786 29.0286 76.1315 28.3114 76.0383C23.7154 75.4425 19.4547 72.8898 17.1919 69.3767C15.3087 66.4459 14.857 63.1552 14.6636 60.3225C14.5986 59.3855 14.5589 58.4276 14.5204 57.5009C14.4312 55.3496 14.3389 53.1251 13.9227 51.0272C12.9337 46.0503 10.0203 41.4328 5.71908 38.0255C5.42268 37.7902 5.11978 37.5607 4.81678 37.331C3.78998 36.5528 2.72828 35.7479 1.92218 34.7295C0.920684 33.4729 0.194884 31.5264 1.16478 29.8372C1.95618 28.4629 3.80178 27.5754 5.86698 27.5754C5.98298 27.5754 6.09868 27.5785 6.21398 27.584C6.44788 27.5936 6.66778 27.6139 6.87998 27.6454C9.06338 27.9631 10.8938 29.152 12.2442 30.1525C19.3583 35.4403 23.7394 43.4378 23.9644 51.5466C24.0026 52.901 23.93 54.2681 23.8598 55.5903C23.8024 56.6689 23.7432 57.7845 23.7464 58.8716C23.7491 59.7254 23.7875 60.4701 23.8641 61.1484C23.9668 62.0915 24.1605 62.9963 24.4402 63.8399L24.448 63.8656C24.9842 65.4813 26.1093 67.6773 28.4291 69.0136C29.1385 69.4204 29.9897 69.7067 30.8897 69.8413C31.298 69.9035 31.7134 69.935 32.1265 69.935C34.3633 69.935 36.2487 69.0441 37.047 67.6098C37.1588 67.4089 37.3876 67.2759 37.6449 67.2623L37.6884 67.2611C37.9297 67.2611 38.1558 67.367 38.2872 67.5441C39.3106 68.9227 40.2164 70.1604 41.3107 71.7205C41.4835 71.9668 41.4359 72.2839 41.1961 72.4838C39.0472 74.2761 36.199 75.515 33.1762 75.9723C32.2924 76.1089 31.3908 76.1786 30.4982 76.1786Z" fill="#2B2B2B"/>
<path d="M5.86706 28.1917C5.96946 28.1917 6.07176 28.1942 6.17366 28.1992C6.37066 28.2075 6.56526 28.2239 6.75986 28.2526C8.66536 28.5299 10.3148 29.5342 11.7814 30.6207C18.7559 35.8045 23.0323 43.6111 23.253 51.5615C23.3218 53.9993 23.0275 56.4414 23.0346 58.8731C23.037 59.6515 23.0678 60.4299 23.1556 61.2083C23.2577 62.1449 23.4522 63.0937 23.756 64.0097V64.0118C24.487 66.2298 25.8491 68.2673 28.0347 69.5263C28.851 69.9946 29.7932 70.3026 30.7685 70.4484C31.217 70.5168 31.6729 70.5512 32.1264 70.5512C34.4373 70.5512 36.6946 69.6627 37.6884 67.8771C38.6305 69.1464 39.5655 70.4198 40.7023 72.0402C38.6163 73.7798 35.9039 74.9341 33.0537 75.3653C32.2105 75.4956 31.3541 75.5622 30.4976 75.5622C29.8018 75.5622 29.106 75.5183 28.4167 75.429C24.0146 74.858 19.9803 72.4407 17.8136 69.0765C16.086 66.3881 15.5853 63.3792 15.374 60.2861C15.1581 57.1726 15.2293 53.9727 14.6241 50.9228C13.6131 45.8354 10.6017 41.0583 6.19956 37.5708C4.91326 36.5501 3.49416 35.6259 2.50936 34.3813C1.51746 33.1367 1.02616 31.4628 1.80216 30.1114C2.53066 28.8464 4.21296 28.1917 5.86706 28.1917ZM5.86676 26.9595C3.53386 26.9595 1.43826 27.9809 0.52776 29.5616C-0.39974 31.1768 -0.0892403 33.2912 1.33716 35.081C2.19146 36.1607 3.28786 36.9916 4.34826 37.7952C4.65746 38.0295 4.94956 38.2509 5.23716 38.4791C9.42336 41.7955 12.2584 46.2887 13.2208 51.1316C13.6289 53.1886 13.7203 55.3923 13.8087 57.5235C13.8472 58.4535 13.8871 59.4151 13.9527 60.36C14.1508 63.2607 14.6167 66.637 16.5692 69.6755C18.9375 73.3527 23.3961 76.0239 28.2056 76.6477C28.9575 76.7451 29.7285 76.7946 30.4975 76.7946C31.432 76.7946 32.3763 76.7219 33.304 76.5785C36.4601 76.1009 39.4402 74.804 41.6902 72.9276C42.1698 72.5276 42.2649 71.8935 41.9193 71.4008C40.8237 69.839 39.9145 68.5964 38.8863 67.2112C38.6234 66.857 38.1711 66.6449 37.6885 66.6449L37.6014 66.6472C37.0867 66.6744 36.6293 66.9403 36.4055 67.3424C35.5943 68.7996 33.6631 69.3189 32.1262 69.3189C31.7544 69.3189 31.3807 69.2906 31.0154 69.235C30.2071 69.1142 29.45 68.86 28.8211 68.4992C26.6881 67.2706 25.64 65.2211 25.1356 63.7058L25.1244 63.6699C24.857 62.8634 24.6714 61.9963 24.5729 61.0927C24.4981 60.4293 24.4607 59.7036 24.4582 58.87C24.4551 57.7977 24.5139 56.6897 24.5709 55.6181C24.6417 54.2856 24.7149 52.9078 24.6761 51.5315C24.4462 43.2515 19.9725 35.0848 12.7087 29.686C11.2867 28.6325 9.35396 27.3808 6.99566 27.0375C6.76016 27.0027 6.51446 26.9801 6.24806 26.9687C6.12176 26.9626 5.99356 26.9595 5.86676 26.9595Z" fill="black"/>
<path d="M40.7023 72.0402C38.6163 73.7799 35.9039 74.9342 33.0538 75.3653C31.5255 75.6015 29.9545 75.6283 28.4167 75.429C24.0146 74.8581 19.9803 72.4408 17.8136 69.0766C16.086 66.3881 15.5853 63.3793 15.374 60.2862C15.374 60.2862 18.554 72.6646 23.1293 70.4609C25.7397 69.206 24.4559 68.1832 23.7558 64.0119C24.4868 66.23 25.8489 68.2675 28.0345 69.5264C28.8508 69.9947 29.793 70.3027 30.7683 70.4486C33.5021 70.8656 36.4993 70.0132 37.6883 67.8772C38.6304 69.1465 39.5655 70.4198 40.7023 72.0402ZM67.3323 80.0244C66.6354 80.0244 65.9919 79.848 65.4711 79.5144C64.3632 78.8086 64.041 77.6404 63.8059 76.5049L59.3918 55.33C59.3526 55.1425 59.416 54.95 59.5635 54.8083L69.8471 44.9313C69.9839 44.7997 70.1772 44.7275 70.3759 44.7275L70.5629 44.7492C70.8221 44.8101 71.0194 44.9923 71.0733 45.2201C71.3553 46.4124 71.6559 47.6907 71.944 48.9585C73.817 57.2879 73.1598 64.8798 72.3988 73.6706C72.3419 74.3289 72.2843 74.9941 72.2271 75.667L72.1963 75.8069C71.8969 76.6302 71.4987 77.5801 70.8151 78.3826C70.5882 78.6476 70.3363 78.8878 70.0652 79.0982C69.3206 79.6778 68.2986 80.0244 67.3323 80.0244Z" fill="#1C1B1B"/>
<path d="M70.376 45.3437C70.6686 46.5811 70.9612 47.8256 71.2455 49.0774C73.2395 57.9449 72.3346 65.9987 71.5172 75.6219C71.2121 76.4612 70.84 77.3151 70.2422 78.017C70.0499 78.2413 69.8325 78.4511 69.5901 78.6393C68.9803 79.114 68.1398 79.4082 67.3324 79.4082C66.8169 79.4082 66.3149 79.2883 65.8947 79.0191C64.975 78.433 64.7075 77.3657 64.5068 76.3961C63.0353 69.3376 61.5638 62.2791 60.0924 55.2205L70.376 45.3437ZM70.376 44.1113C69.9784 44.1113 69.592 44.2557 69.3182 44.5188L59.0346 54.3956C58.7397 54.6788 58.6129 55.0642 58.6911 55.4393L60.794 65.527L63.1055 76.6149C63.2976 77.5432 63.6197 79.0996 65.0503 80.0114C65.6916 80.4223 66.4817 80.6404 67.3323 80.6404C68.4865 80.6404 69.6565 80.2449 70.5423 79.5553C70.8468 79.319 71.1312 79.048 71.3857 78.7512C72.134 77.8727 72.5585 76.8635 72.8754 75.9917C72.9084 75.9009 72.9292 75.8071 72.9372 75.7122C72.9943 75.0397 73.0519 74.3749 73.1088 73.7169C73.8736 64.8818 74.5341 57.2516 72.6431 48.8419C72.3718 47.6474 72.0983 46.481 71.7709 45.0966C71.6632 44.641 71.2683 44.2767 70.7499 44.1546C70.6263 44.1255 70.5006 44.1113 70.376 44.1113Z" fill="black"/>
<path d="M37.1655 74.4307C46.287 78.1824 56.8925 79.1592 66.7247 77.1513C65.3619 73.9784 64.0033 70.8055 62.6405 67.6326C55.9227 69.0472 48.975 69.6333 42.0732 69.3727C40.4805 69.3113 38.7666 69.2317 37.4163 69.9697C36.066 70.7078 34.766 73.4429 37.1655 74.4307Z" fill="#1C1B1B"/>
<path d="M64.1125 83.223C62.2749 83.1843 60.8348 81.9891 59.8323 79.6706C59.698 79.3613 59.5724 79.0345 59.4486 78.6724L58.6811 76.4031C58.2986 76.9041 57.8579 77.3791 57.3713 77.8119C57.2572 77.9168 57.1225 78.0317 56.9788 78.1468C56.629 78.4328 56.2392 78.708 55.8258 78.9599C53.1663 80.5886 49.6521 81.4269 45.0838 81.5224C44.62 81.5328 44.1357 81.539 43.6393 81.5413C43.4956 81.5423 43.3485 81.5426 43.2009 81.5426C37.8645 81.5426 31.4497 80.8898 29.1926 75.7976C26.672 70.0994 27.9787 62.9469 32.6027 57.1315C35.8102 53.1018 40.4234 49.6436 46.7062 46.5584C48.5553 45.6513 50.013 44.228 50.8109 42.5509C50.8715 42.4216 50.9359 42.2875 51.0002 42.1531C51.1453 41.8521 51.2912 41.556 51.4393 41.2581C51.7234 40.6823 52.0287 40.0804 52.3457 39.4704C52.3457 39.4704 52.705 38.7802 52.812 38.5767C53.0753 38.07 53.3468 37.5586 53.6207 37.0454C53.7377 36.8261 53.9908 36.6876 54.2668 36.6876L54.3137 36.6889C56.1176 36.7917 57.9422 36.8416 59.8918 36.8416C62.2576 36.8416 64.7553 36.7668 67.5275 36.6128L67.5732 36.6116C67.7857 36.6116 67.9881 36.694 68.1238 36.8374C69.7021 38.5051 70.9838 40.3896 71.9334 42.4389C72.2268 43.0644 72.497 43.7333 72.7356 44.4247C72.8298 44.6983 72.9071 44.94 72.9719 45.164C74.0148 48.6091 74.0971 52.2113 73.2078 55.5743C72.488 58.3193 71.1289 60.9506 69.1688 63.3937C68.6559 64.0361 68.0988 64.6653 67.5104 65.2667C68.0403 69.1149 68.3726 73.0393 68.4983 76.9355C68.5078 77.2753 68.5176 77.6243 68.5128 77.9769C68.4971 79.1445 68.3269 80.009 67.9609 80.7792C67.6306 81.4635 67.0913 82.0809 66.4406 82.5214C65.7483 82.9821 64.9725 83.2238 64.192 83.2238L64.1125 83.223Z" fill="#2B2B2B"/>
<path d="M67.5732 37.2278C69.1205 38.8626 70.364 40.707 71.2729 42.6684C71.5695 43.3009 71.8282 43.948 72.0537 44.601C72.1344 44.8351 72.2127 45.0755 72.2815 45.3137C73.2806 48.6142 73.3921 52.116 72.514 55.437C71.7997 58.1603 70.428 60.7441 68.5842 63.0423C68.0218 63.7468 67.4142 64.4245 66.7664 65.0715C67.3193 69.0149 67.6587 72.9808 67.7868 76.9529C67.7963 77.2897 67.8058 77.6307 67.801 77.9695C67.7891 78.8526 67.6871 79.7358 67.3026 80.545C67.025 81.12 66.5693 81.652 66.0021 82.036C65.4752 82.3865 64.8522 82.6077 64.1917 82.6077L64.1297 82.6071C62.2834 82.5679 61.1799 81.0297 60.4989 79.4544C60.3589 79.1319 60.2378 78.8094 60.131 78.4973C59.7157 77.2671 59.2981 76.0368 58.8827 74.8066C58.4009 75.7513 57.7056 76.6304 56.8608 77.382C56.7445 77.4888 56.6211 77.5936 56.4953 77.6942C56.156 77.9715 55.7929 78.2261 55.4156 78.4562C52.4539 80.2697 48.695 80.8304 45.0665 80.9063C44.6061 80.9167 44.1267 80.9228 43.6355 80.9249C43.4913 80.9257 43.3455 80.9263 43.1992 80.9263C38.1684 80.9263 31.9627 80.3266 29.8572 75.5767C27.2326 69.6431 29.0266 62.7157 33.189 57.4804C36.6893 53.0832 41.6657 49.7416 47.0575 47.0942C49.0414 46.1207 50.6006 44.6112 51.4691 42.7853C51.5308 42.6538 51.5949 42.5203 51.6589 42.3869C51.8013 42.0911 51.946 41.7974 52.0932 41.5017C52.3851 40.9102 52.6865 40.3167 52.995 39.7231C53.1493 39.4274 53.3035 39.1295 53.4601 38.8317C53.7236 38.3245 53.9941 37.8151 54.267 37.3037C56.1331 37.41 58.0047 37.4576 59.891 37.4576C62.4159 37.4576 64.9679 37.3724 67.5732 37.2278ZM67.5731 35.9954L67.4819 35.9979C64.7242 36.1509 62.2412 36.2253 59.891 36.2253C57.9574 36.2253 56.1484 36.1758 54.3605 36.074L54.2666 36.0713C53.7145 36.0713 53.2083 36.3486 52.9744 36.7869C52.7282 37.2482 52.4391 37.7918 52.1614 38.3266C52.056 38.527 51.9488 38.7328 51.8421 38.9379L51.6972 39.2162C51.3765 39.8332 51.0694 40.4389 50.7837 41.0178C50.636 41.3147 50.489 41.6129 50.3445 41.9132C50.2785 42.0506 50.213 42.1872 50.1499 42.3216C49.415 43.8664 48.0664 45.1826 46.3551 46.0224C39.9765 49.1543 35.2864 52.6736 32.0164 56.7814C29.7765 59.5986 28.2411 62.804 27.5758 66.0516C26.86 69.5459 27.1891 72.992 28.5273 76.0174C29.6224 78.4879 31.7861 80.2297 34.9587 81.1952C37.7959 82.0587 41.0204 82.1586 43.1991 82.1586C43.3489 82.1586 43.4983 82.1581 43.6459 82.1571C44.1467 82.155 44.6382 82.1487 45.1033 82.1382C49.8153 82.0396 53.4583 81.1643 56.2379 79.4621C56.6734 79.1966 57.0878 78.9044 57.4672 78.5947C57.6177 78.4742 57.7596 78.3529 57.8892 78.2342C58.0637 78.0786 58.2327 77.9179 58.3957 77.7528C58.5186 78.1162 58.6415 78.4795 58.7641 78.8428C58.8946 79.2242 59.0255 79.5647 59.1658 79.8879C60.2793 82.4634 61.9379 83.7933 64.0947 83.8389L64.1915 83.8399C65.1303 83.8399 66.0564 83.554 66.8696 83.013L66.8792 83.0065C67.6243 82.502 68.2412 81.7965 68.6161 81.0201C69.1341 79.9297 69.2131 78.825 69.2244 77.9837C69.2295 77.6195 69.2195 77.2653 69.2098 76.9227C69.0862 73.0931 68.7646 69.2404 68.2531 65.4584C68.783 64.9047 69.2867 64.3295 69.7551 63.7427C71.7656 61.2368 73.1614 58.5333 73.902 55.7098C74.8155 52.2546 74.7322 48.5536 73.6605 45.0085C73.5936 44.7775 73.5142 44.5289 73.4176 44.2488C73.1722 43.5379 72.8944 42.8505 72.5917 42.2049C71.6172 40.102 70.2985 38.1631 68.6742 36.447C68.4028 36.1601 67.9982 35.9954 67.5731 35.9954Z" fill="black"/>
<path d="M71.2729 42.6683C69.2368 44.338 64.08 44.7981 60.9973 44.4202C57.5231 43.9951 53.9587 44.8864 51.4669 47.0245C50.5034 47.8502 49.2647 48.4745 47.6699 48.7209C40.4248 49.8382 40.7831 56.2338 43.3674 55.7983C45.9493 55.365 53.4816 54.1224 59.1486 60.9514C62.7723 65.3199 51.9581 74.7203 43.6356 80.9249C38.5334 80.9577 32.024 80.4648 29.8573 75.5767C27.2327 69.6431 29.0267 62.7157 33.1892 57.4804C36.6895 53.0832 41.6659 49.7416 47.0576 47.0942C49.0415 46.1207 50.6007 44.6111 51.4693 42.7852C51.531 42.6538 51.5951 42.5202 51.6591 42.3868C51.8015 42.0911 51.9462 41.7973 52.0934 41.5016C52.3853 40.9101 52.6867 40.3165 52.9952 39.723C53.1495 39.4273 53.3037 39.1294 53.4603 38.8316C53.7238 38.3243 53.9943 37.8149 54.2672 37.3035C58.6313 37.552 63.0216 37.4801 67.5732 37.2275C69.1205 38.8624 70.364 40.7069 71.2729 42.6683Z" fill="#1C1B1B"/>
<path d="M59.5411 41.7927C48.4369 41.7927 40.4331 37.8405 37.5072 36.1413C36.4909 35.5509 35.9413 34.5257 36.073 33.4661C36.5335 29.7593 37.4995 26.1697 38.8694 23.0697C36.9848 16.2288 37.4773 8.86348 40.2281 2.83047C40.2836 2.70489 40.3419 2.57801 40.405 2.45114C40.52 2.22023 40.7811 2.07882 41.0586 2.07882L41.2679 2.10608C46.2894 3.44131 51.3384 6.8133 54.7815 9.49561C56.575 9.11091 58.4965 8.9161 60.4993 8.9161C61.8201 8.9161 63.1125 9.0113 64.3471 9.19945C67.5619 6.54302 72.3352 3.0966 77.2922 1.28537C77.9522 1.04226 78.6304 0.826501 79.3057 0.644323L79.5175 0.616455C79.7995 0.616455 80.064 0.762285 80.1762 0.998901C83.2163 7.41462 83.6756 15.2335 81.4447 22.4864C83.558 26.7061 84.5085 30.8204 84.8891 32.9158C85.0997 34.0761 84.4748 35.2124 83.2967 35.8108C82.2213 36.3573 81.1189 36.8771 80.0202 37.3552C73.2622 40.2996 66.372 41.7927 59.5411 41.7927Z" fill="#2B2B2B"/>
<path d="M79.5169 1.23258C82.5545 7.64259 82.9365 15.4143 80.6916 22.5349C82.8367 26.7469 83.7979 30.8786 84.1852 33.0116C84.3498 33.918 83.8501 34.815 82.9357 35.2795C81.8452 35.8336 80.7667 36.3402 79.6996 36.8049C72.2751 40.0397 65.4554 41.1764 59.5407 41.1764C48.6547 41.1764 40.8291 37.3285 37.9036 35.6295C37.1056 35.166 36.6776 34.3587 36.7804 33.5318C37.1923 30.2169 38.0637 26.5565 39.613 23.1119C37.7097 16.3693 38.1227 9.12538 40.8897 3.05636C40.9443 2.93312 40.9989 2.81403 41.0582 2.69486C45.7546 3.94354 50.6574 7.07771 54.5873 10.1748C56.3861 9.75786 58.3534 9.53206 60.4988 9.53206C61.9416 9.53206 63.299 9.64708 64.5758 9.86266C68.1948 6.84152 72.903 3.55746 77.5686 1.85277C78.2212 1.61252 78.869 1.40715 79.5169 1.23258ZM79.5171 0C79.3767 0 79.2341 0.0180881 79.0936 0.0559951C78.3955 0.244145 77.6949 0.467174 77.0112 0.718849C72.0911 2.51649 67.3671 5.8794 64.1136 8.54085C62.9472 8.38074 61.7347 8.29982 60.4988 8.29982C58.5742 8.29982 56.7212 8.47507 54.9781 8.82134C51.4898 6.13427 46.4864 2.84908 41.4764 1.51697C41.3376 1.48002 41.1968 1.46245 41.0581 1.46245C40.5029 1.46245 39.9808 1.74519 39.7507 2.20718C39.6908 2.32747 39.6326 2.4521 39.5624 2.61039C38.1375 5.73781 37.3017 9.15446 37.0782 12.7657C36.8652 16.2068 37.2176 19.657 38.1259 23.0276C36.7758 26.1351 35.823 29.7118 35.3647 33.4001C35.2047 34.6881 35.8735 35.9346 37.1102 36.6528C40.0901 38.3835 48.2408 42.4088 59.5407 42.4088C66.4837 42.4088 73.4816 40.8937 80.3398 37.9056C81.4518 37.4215 82.5679 36.8955 83.6565 36.3424C85.0885 35.6149 85.8481 34.2324 85.5917 32.8204C85.2118 30.7281 84.2714 26.6509 82.1948 22.438C84.393 15.1161 83.9032 7.24154 80.8341 0.765151C80.6099 0.291919 80.0809 0 79.5171 0Z" fill="black"/>
<path d="M64.7807 34.7263C64.1387 34.7263 63.52 34.6203 63.039 34.4275C62.0231 34.0207 61.4863 33.5588 61.4863 33.0921C61.4863 32.3073 62.8673 31.7153 64.6987 31.7153C66.256 31.7153 67.9112 32.1979 67.9112 33.0921C67.9112 33.3986 67.6399 33.7247 67.0313 34.1495C66.5065 34.5161 65.6862 34.7263 64.7807 34.7263Z" fill="#D68580"/>
<path d="M64.6989 32.0234C66.2742 32.0234 67.5554 32.5023 67.5554 33.092C67.5554 33.3179 67.2207 33.6215 66.8078 33.9097C66.311 34.2565 65.5407 34.4182 64.7809 34.4182C64.2023 34.4182 63.6298 34.3245 63.1886 34.1478C62.2832 33.7851 61.8423 33.4053 61.8423 33.092C61.8423 32.5023 63.1197 32.0234 64.6989 32.0234ZM64.6988 31.4072C62.9256 31.4072 61.1304 31.9859 61.1304 33.092C61.1304 33.6962 61.7223 34.2396 62.8895 34.7071C63.4165 34.9182 64.0883 35.0344 64.7808 35.0344C65.7661 35.0344 66.6679 34.7993 67.2549 34.3894C67.9551 33.9005 68.2672 33.5004 68.2672 33.092C68.2672 31.9859 66.4721 31.4072 64.6988 31.4072ZM74.8858 33.3207C74.0224 33.3207 73.0614 33.208 72.0296 32.986C71.6051 32.895 71.1632 32.7832 70.6794 32.6446C69.3594 32.2659 68.4432 31.8676 68.4048 31.8508C68.2855 31.7987 68.2101 31.6932 68.2093 31.5774C68.2091 31.5449 68.2059 30.7667 68.3297 29.6527C68.412 28.9089 68.5319 28.1942 68.6862 27.5287C69.2393 25.1265 70.1955 23.4806 71.528 22.6372C72.2694 22.1692 73.1649 21.9319 74.1899 21.9319C75.0954 21.9319 76.1047 22.1168 77.19 22.482C78.4219 22.897 79.4541 23.4431 79.9599 23.7317C80.2399 23.8885 80.4009 23.9931 80.4077 23.9975C80.4834 24.0467 80.5332 24.1201 80.5462 24.2013C80.5462 24.2013 80.5607 24.2918 80.5828 24.4542C80.6398 24.8951 80.761 26.0586 80.6603 27.3737C80.4777 29.8674 79.6503 31.5955 78.2009 32.5089C77.3459 33.0476 76.2305 33.3207 74.8858 33.3207Z" fill="black"/>
<path d="M74.1898 22.2399C75.1652 22.2399 76.1645 22.4674 77.0608 22.7688C78.2308 23.1631 79.2275 23.6827 79.7638 23.9887C80.0391 24.1428 80.1934 24.2434 80.1934 24.2434C80.1934 24.2434 80.2076 24.3318 80.229 24.4899C80.2907 24.9663 80.4022 26.0837 80.3049 27.3529C80.1744 29.1357 79.6404 31.2203 77.9911 32.2596C77.1155 32.8114 76.0184 33.0124 74.8854 33.0124C73.952 33.0124 72.9943 32.8759 72.1153 32.6867C71.6454 32.5861 71.1993 32.469 70.7911 32.3519C69.4811 31.976 68.5651 31.5756 68.5651 31.5756C68.5651 31.5756 68.5603 30.7931 68.6838 29.682C68.7526 29.0617 68.8618 28.3367 69.035 27.5891C69.4527 25.7755 70.2453 23.8306 71.7379 22.8859C72.4767 22.4193 73.3239 22.2399 74.1898 22.2399ZM74.19 21.6238C73.0878 21.6238 72.1214 21.881 71.3182 22.3882C69.9109 23.2789 68.908 24.9882 68.3367 27.4687C68.1805 28.1427 68.0588 28.8677 67.975 29.6231C67.8496 30.7522 67.8529 31.5456 67.8531 31.5789C67.8545 31.8101 68.0054 32.0213 68.244 32.1256C68.2833 32.1428 69.2225 32.5511 70.567 32.9369C71.0586 33.0779 71.5091 33.1917 71.9442 33.2849C73.0033 33.513 73.9931 33.6287 74.8854 33.6287C76.3071 33.6287 77.493 33.3357 78.4101 32.7578C79.9491 31.7881 80.8256 29.9827 81.0154 27.392C81.118 26.0536 80.9943 24.8687 80.9364 24.4215C80.9135 24.2517 80.8984 24.1585 80.8984 24.1585C80.8722 23.9966 80.7727 23.85 80.6218 23.7515C80.6147 23.7468 80.4437 23.6356 80.1503 23.4715C79.638 23.1792 78.5812 22.6202 77.3191 22.1948C76.1922 21.8159 75.1396 21.6238 74.19 21.6238Z" fill="black"/>
<path d="M79.0795 19.7171C78.8163 19.7171 78.579 19.5996 78.445 19.4027C76.9025 17.1387 75.1081 15.2454 73.1116 13.7751C72.8545 13.5856 72.7772 13.27 72.9234 13.0079C74.9099 9.44619 76.5812 6.9213 78.0557 4.6937C78.3543 4.24271 78.6451 3.80315 78.9296 3.36878C78.9932 3.27167 79.1119 3.21265 79.2392 3.21265L79.2707 3.21386C79.4096 3.2245 79.5286 3.30439 79.575 3.41837C81.6799 8.5854 81.7536 14.068 79.7876 19.273C79.6871 19.5388 79.4027 19.7171 79.0795 19.7171Z" fill="#D68580"/>
<path d="M79.2395 3.5205C81.278 8.52432 81.4013 14.0092 79.4495 19.1771C79.3924 19.3282 79.2363 19.4088 79.0797 19.4088C78.9534 19.4088 78.8269 19.3564 78.7517 19.2459C77.3231 17.1493 75.5471 15.1639 73.3424 13.5402C73.209 13.4419 73.168 13.2779 73.2442 13.1414C75.626 8.8711 77.5472 6.10467 79.2395 3.5205ZM79.2393 2.9043C78.9847 2.9043 78.7473 3.02252 78.6201 3.21664C78.3357 3.65093 78.0448 4.09041 77.7463 4.54131C76.269 6.77315 74.5947 9.30271 72.603 12.8736C72.3862 13.2622 72.5006 13.7293 72.881 14.0094C74.8472 15.4575 76.616 17.3245 78.1384 19.5589C78.3372 19.8507 78.6891 20.0249 79.0796 20.0249C79.5572 20.0249 79.9777 19.7611 80.126 19.3684C82.1164 14.0982 82.042 8.54716 79.9107 3.31556C79.818 3.08786 79.58 2.92801 79.3021 2.90672L79.2393 2.9043Z" fill="black"/>
<path d="M41.1143 20.2248C40.8094 20.2248 40.5498 20.0543 40.4681 19.8002C38.8498 14.7665 39.043 9.12994 40.998 4.336C41.032 4.25266 41.1056 4.18602 41.2002 4.15287L41.3337 4.13037L41.4926 4.16274C44.8241 5.60122 46.7374 8.03263 49.1025 12.0161C49.2569 12.2761 49.1624 12.5962 48.8829 12.7609C46.0289 14.4428 43.6118 16.8522 41.6988 19.922C41.5807 20.1116 41.3622 20.2248 41.1143 20.2248Z" fill="#D68580"/>
<path d="M41.3334 4.43872C44.507 5.80899 46.3952 8.1311 48.7857 12.1572C48.8581 12.2792 48.8133 12.4293 48.6823 12.5065C45.5593 14.347 43.1767 16.9011 41.3852 19.7761C41.3256 19.8717 41.2197 19.917 41.114 19.917C40.983 19.917 40.8524 19.8474 40.8107 19.7178C39.1916 14.6816 39.4084 9.159 41.3334 4.43872ZM41.3333 3.82251C41.2428 3.82251 41.1521 3.8374 41.0664 3.86743C40.8772 3.93363 40.7299 4.067 40.662 4.23352C38.6832 9.0857 38.4874 14.7897 40.1249 19.8829C40.2499 20.2717 40.6474 20.5331 41.114 20.5331C41.4892 20.5331 41.8332 20.3551 42.0118 20.0685C43.8973 17.0427 46.2764 14.6698 49.083 13.0157C49.5107 12.7636 49.6551 12.2735 49.4189 11.8756C47.0191 7.8339 45.0705 5.36372 41.6512 3.88733C41.5514 3.84423 41.4424 3.82251 41.3333 3.82251Z" fill="black"/>
<path d="M74.8854 33.3209C74.022 33.3209 73.061 33.2082 72.0292 32.9862L71.9012 32.9334C70.8562 32.2532 70.0043 31.3351 69.438 30.2781C68.9781 29.4214 68.723 28.521 68.6792 27.6021L68.6856 27.5293C69.2389 25.1268 70.1951 23.4809 71.5276 22.6375C72.269 22.1694 73.1645 21.9321 74.1895 21.9321C75.095 21.9321 76.1043 22.1171 77.1896 22.4822C78.4215 22.8973 79.4537 23.4434 79.9595 23.7319L80.0287 23.7835C80.1915 23.9409 80.351 24.1126 80.5163 24.3087L80.5824 24.4559C80.6392 24.8954 80.7605 26.0589 80.6598 27.3739C80.4772 29.8676 79.6498 31.5956 78.2004 32.5091C77.3454 33.0477 76.2301 33.3209 74.8854 33.3209Z" fill="#F9D669"/>
<path d="M74.19 22.2399C75.1654 22.2399 76.1647 22.4674 77.061 22.7688C78.231 23.1631 79.2277 23.6827 79.764 23.9887C79.9278 24.1468 80.082 24.3153 80.2291 24.4898C80.2908 24.9663 80.4023 26.0836 80.305 27.3528C80.1745 29.1356 79.6405 31.2202 77.9912 32.2595C77.1156 32.8113 76.0185 33.0123 74.8855 33.0123C73.9521 33.0123 72.9944 32.8758 72.1154 32.6867C71.1495 32.0582 70.3237 31.1976 69.7612 30.1481C69.3103 29.3081 69.0754 28.4373 69.0351 27.5891C69.4528 25.7755 70.2454 23.8306 71.738 22.8859C72.4768 22.4193 73.3241 22.2399 74.19 22.2399ZM74.1901 21.6238C73.0879 21.6238 72.1215 21.881 71.3183 22.3882C69.911 23.2789 68.9081 24.9882 68.3368 27.4687L68.3237 27.6146C68.3693 28.5743 68.6357 29.5141 69.1155 30.4078C69.7064 31.5105 70.5958 32.469 71.6875 33.1793C71.7638 33.2289 71.8509 33.2648 71.9435 33.2847C73.0034 33.5129 73.9932 33.6285 74.8855 33.6285C76.3072 33.6285 77.4931 33.3355 78.4102 32.7576C79.9492 31.7879 80.8257 29.9825 81.0155 27.3919C81.1181 26.0534 80.9944 24.8685 80.9365 24.4213C80.9227 24.3148 80.8771 24.2133 80.8041 24.1268C80.6316 23.9221 80.4647 23.7425 80.2941 23.5776L80.1557 23.4744C79.6381 23.179 78.5813 22.62 77.3192 22.1947C76.1923 21.8158 75.1397 21.6238 74.1901 21.6238Z" fill="black"/>
<path d="M72.1675 28.2194C72.1675 26.1717 73.1081 24.511 73.1081 24.511C73.1081 24.511 74.0487 26.1717 74.0487 28.2194C74.0487 30.2671 73.1081 31.9277 73.1081 31.9277C73.1081 31.9277 72.1675 30.2671 72.1675 28.2194Z" fill="black"/>
<path d="M74.8184 27.6262C74.5248 27.6262 74.2529 27.6653 74.0312 27.7317C74.0426 27.8913 74.0487 28.054 74.0487 28.2194C74.0487 28.3663 74.0438 28.5112 74.0349 28.6535C74.256 28.7193 74.5264 28.758 74.8185 28.758C75.5662 28.758 76.1722 28.5046 76.1722 28.1921C76.1722 27.8795 75.5662 27.6262 74.8184 27.6262Z" fill="#FAE5A4"/>
<path d="M74.0313 27.7317C73.6883 27.8343 73.4648 28.0022 73.4648 28.192C73.4648 28.3824 73.6899 28.5509 74.0348 28.6535C74.0438 28.5111 74.0486 28.3662 74.0486 28.2194C74.0486 28.0541 74.0426 27.8914 74.0313 27.7317Z" fill="#656565"/>
<path d="M65.165 32.3555C64.6618 32.3555 64.2539 32.4719 64.2539 32.6153C64.2539 32.7589 64.6618 32.8753 65.165 32.8753C65.6682 32.8753 66.0761 32.7589 66.0761 32.6153C66.0761 32.4718 65.6681 32.3555 65.165 32.3555Z" fill="#E5B5B2"/>
<path d="M67.8011 77.9696C67.7892 78.8527 67.6872 79.7359 67.3027 80.5451C67.0251 81.1201 66.5694 81.6521 66.0022 82.0361C65.4588 82.3976 64.8133 82.6214 64.1298 82.6071C62.2835 82.568 61.18 81.0297 60.499 79.4544C63.1473 80.6066 66.3702 81.1407 67.8011 77.9696Z" fill="#1C1B1B"/>
<path d="M46.9003 84.1042C44.7402 84.1042 42.7978 83.9343 40.9622 83.5846L40.8054 83.5543C35.2424 82.447 31.7768 78.5225 31.5261 73.0545C31.4654 71.7236 31.6272 70.377 32.0073 69.0516L32.0259 68.9828C32.3354 67.917 32.7848 66.8628 33.3618 65.8489L34.4015 64.0248C36.0998 61.0453 38.9394 58.7779 42.3974 57.64C42.8445 57.4948 43.2937 57.368 43.7353 57.2625C44.9768 56.9675 46.2369 56.8181 47.4819 56.8181C47.9269 56.8181 48.3743 56.8376 48.8117 56.8758C54.2356 57.3444 59.2336 60.7964 60.965 65.2701C62.505 69.2417 61.4301 73.9138 58.3692 77.1544C58.5108 77.1583 58.6501 77.1652 58.7858 77.1746C60.8711 77.3162 62.1766 78.1025 62.4605 79.3881C62.6452 80.2149 62.2984 81.0948 61.5088 81.8012C61.2755 82.0079 61.0162 82.188 60.7358 82.3383C59.6842 82.8974 58.4775 83.055 57.413 83.1939C54.1683 83.6205 50.4897 84.1042 46.9003 84.1042Z" fill="#2B2B2B"/>
<path d="M47.4818 57.4342C47.9016 57.4342 48.3215 57.4522 48.7403 57.4889C53.9208 57.9366 58.6362 61.192 60.2902 65.4659C61.9466 69.7379 60.454 74.7964 56.6332 77.8567C57.0822 77.8003 57.5693 77.7661 58.0582 77.7661C58.2824 77.7661 58.507 77.7733 58.7286 77.7888C60.1809 77.8875 61.5052 78.3433 61.7614 79.5038C61.9133 80.1836 61.5621 80.8675 60.9972 81.3728C60.805 81.5433 60.5914 81.6912 60.3612 81.8144C59.4499 82.2991 58.3631 82.447 57.307 82.5847C53.8654 83.0372 50.3657 83.4881 46.9003 83.4881C44.9558 83.4881 43.0226 83.3463 41.1153 82.983L40.9563 82.9523C35.2609 81.8186 32.4558 77.791 32.2375 73.0303C32.1782 71.7302 32.3419 70.4343 32.705 69.1773L32.7097 69.1568C33.0111 68.1114 33.4478 67.0927 34.0007 66.1212L35.0402 64.2974C36.6207 61.5247 39.3118 59.3149 42.6508 58.216C43.0685 58.0805 43.4956 57.9593 43.9252 57.8566C45.0838 57.5812 46.2818 57.4342 47.4818 57.4342ZM47.4817 56.202C46.1733 56.202 44.8498 56.3589 43.548 56.6683C43.0846 56.7792 42.6152 56.9115 42.1508 57.0622C38.518 58.2576 35.5414 60.6329 33.7633 63.7522L32.7238 65.576C32.1213 66.6346 31.6528 67.7356 31.3309 68.8491L31.3134 68.9138C30.9192 70.2922 30.7515 71.6932 30.8147 73.0788C31.079 78.8417 34.7509 82.9815 40.6371 84.1532L40.6536 84.1564L40.7997 84.1847C42.6957 84.5458 44.6881 84.7204 46.9003 84.7204C50.5436 84.7204 54.2505 84.233 57.5209 83.803C58.5946 83.663 59.9332 83.4885 61.1068 82.8643C61.4399 82.6859 61.7447 82.4743 62.0163 82.2335C62.9739 81.3769 63.389 80.2981 63.1593 79.27C62.8579 77.9053 61.6124 76.9775 59.6945 76.6587C60.6929 75.397 61.4391 73.9654 61.895 72.4207C62.6282 69.936 62.54 67.3955 61.6398 65.0739C60.7412 62.7521 59.0418 60.6789 56.7254 59.0793C54.4095 57.48 51.6971 56.506 48.8814 56.2627C48.4222 56.2224 47.9508 56.202 47.4817 56.202Z" fill="black"/>
<path d="M60.9972 81.373C60.805 81.5435 60.5914 81.6914 60.3612 81.8146C59.4499 82.2994 58.3631 82.4472 57.307 82.5849C51.9343 83.2914 46.4216 83.9939 41.1153 82.9833L40.9563 82.9525C35.2608 81.8188 32.4558 77.7912 32.2375 73.0305C32.1782 71.7304 32.3419 70.4345 32.705 69.1775C32.6219 69.6807 32.7668 79.5535 44.3892 81.5373C57.7084 83.8108 60.9284 79.9847 58.7285 77.7891C60.1808 77.8878 61.5051 78.3436 61.7613 79.5041C61.9132 80.1839 61.5621 80.8677 60.9972 81.373Z" fill="#1C1B1B"/>
<path d="M52.2891 35.2338C51.7143 35.2338 51.1552 35.1753 50.6271 35.0597C47.6376 34.4054 45.5633 31.9429 44.3496 29.9923C43.4903 28.6169 43.0658 27.5143 43.0483 27.4683C43.005 27.3547 43.0414 27.2299 43.1415 27.1477C43.1989 27.1007 44.5687 25.986 46.57 24.9794C48.6317 23.9392 50.5649 23.4116 52.3156 23.4116C52.8902 23.4116 53.449 23.47 53.9768 23.5855C55.9913 24.0272 57.8234 25.3239 59.4225 27.439C60.8344 29.3018 61.527 31.0996 61.5557 31.1752C61.5989 31.2886 61.5624 31.4132 61.4623 31.4953C61.416 31.5333 60.3091 32.4351 58.6322 33.3517L58.6144 33.3623C56.335 34.6042 54.2071 35.2338 52.2891 35.2338Z" fill="black"/>
<path d="M52.3158 23.7199C52.843 23.7199 53.3701 23.7707 53.89 23.8844C56.1753 24.3855 57.9171 26.0101 59.1251 27.6079C60.5276 29.4585 61.2182 31.2719 61.2182 31.2719C61.2182 31.2719 60.1028 32.1859 58.4274 33.0999L58.4251 33.1019C56.7512 34.014 54.5213 34.9261 52.2895 34.9261C51.7622 34.9261 51.235 34.8752 50.7148 34.7614C47.8528 34.135 45.8428 31.7422 44.6634 29.8466C43.8091 28.4788 43.3867 27.3718 43.3867 27.3718C43.3867 27.3718 44.7607 26.2462 46.7494 25.246C48.3417 24.4425 50.3285 23.7199 52.3158 23.7199ZM52.3161 23.1038C50.5016 23.1038 48.5081 23.6454 46.3909 24.7138C44.355 25.7378 42.956 26.8763 42.8974 26.9242C42.6969 27.0885 42.6242 27.3382 42.7108 27.565C42.7288 27.6123 43.163 28.7399 44.0372 30.1397C45.2841 32.1438 47.4251 34.677 50.5404 35.3588C51.0969 35.4806 51.6855 35.5423 52.2896 35.5423C54.2757 35.5423 56.4677 34.8967 58.8045 33.6234L58.8321 33.6076C60.5329 32.6768 61.6604 31.7582 61.7078 31.7195C61.9081 31.5554 61.9808 31.306 61.8945 31.0792C61.8651 31.002 61.158 29.1667 59.7206 27.2702C58.0715 25.0888 56.1686 23.7484 54.0651 23.2872C53.5084 23.1656 52.92 23.1038 52.3161 23.1038Z" fill="black"/>
<path d="M52.2891 35.2339C51.7144 35.2339 51.1552 35.1754 50.6271 35.0598C47.6376 34.4055 45.5633 31.9429 44.3496 29.9924L44.3073 29.8606L44.3047 29.7171C44.3047 27.9573 45.0818 26.2932 46.4931 25.0314L46.5697 24.9797C48.6317 23.9392 50.5648 23.4116 52.3155 23.4116C52.8901 23.4116 53.4489 23.47 53.9767 23.5855C55.9912 24.0272 57.8233 25.3239 59.4224 27.439L59.4608 27.5064C59.7464 28.217 59.891 28.9607 59.891 29.7171C59.891 30.9718 59.4894 32.1975 58.7297 33.2616L58.6786 33.3175L58.6143 33.3624C56.3349 34.6043 54.2071 35.2339 52.2891 35.2339Z" fill="#F9D669"/>
<path d="M52.3157 23.7199C52.8429 23.7199 53.37 23.7707 53.8899 23.8844C56.1752 24.3855 57.9171 26.0101 59.125 27.6079C59.3908 28.2693 59.5356 28.9779 59.5356 29.7172C59.5356 30.9578 59.1298 32.1161 58.4274 33.1L58.4251 33.102C56.7512 34.0141 54.5213 34.9262 52.2895 34.9262C51.7622 34.9262 51.235 34.8753 50.7148 34.7615C47.8528 34.135 45.8428 31.7423 44.6634 29.8467L44.6611 29.7173C44.6611 27.9818 45.4561 26.4025 46.7494 25.2461C48.3417 24.4426 50.3284 23.7199 52.3157 23.7199ZM52.3161 23.1038C50.5016 23.1038 48.5081 23.6455 46.3909 24.7139L46.2379 24.8176C44.762 26.1372 43.9492 27.8773 43.9492 29.7173L43.9523 29.8757C43.9573 29.9677 43.9861 30.0577 44.0366 30.1388C45.2841 32.1438 47.425 34.677 50.5403 35.3588C51.0968 35.4806 51.6854 35.5423 52.2895 35.5423C54.2756 35.5423 56.4676 34.8967 58.8044 33.6234L58.9281 33.538L59.0331 33.4239C59.8277 32.3111 60.2477 31.0294 60.2477 29.7173C60.2477 28.9265 60.0963 28.1488 59.7976 27.4056L59.7209 27.2707C58.0714 25.0887 56.1684 23.7484 54.0649 23.2872C53.5082 23.1655 52.92 23.1038 52.3161 23.1038Z" fill="black"/>
<path d="M50.8687 29.7172C50.8687 27.6695 51.8093 26.0088 51.8093 26.0088C51.8093 26.0088 52.7499 27.6695 52.7499 29.7172C52.7499 31.7649 51.8093 33.4255 51.8093 33.4255C51.8093 33.4255 50.8687 31.7649 50.8687 29.7172Z" fill="black"/>
<path d="M53.4519 29.1514C53.1878 29.1514 52.9413 29.183 52.7329 29.2377C52.7438 29.3946 52.7497 29.5547 52.7497 29.7171C52.7497 29.8796 52.7438 30.0397 52.7329 30.1966C52.9412 30.2513 53.1877 30.2829 53.4519 30.2829C54.1995 30.2829 54.8055 30.0296 54.8055 29.7171C54.8055 29.4046 54.1995 29.1514 53.4519 29.1514Z" fill="#FAE5A4"/>
<path d="M52.7329 29.2373C52.3516 29.3374 52.0981 29.5147 52.0981 29.7168C52.0981 29.9189 52.3516 30.0962 52.7329 30.1962C52.7438 30.0393 52.7497 29.8792 52.7497 29.7168C52.7497 29.5543 52.7438 29.3943 52.7329 29.2373Z" fill="#656565"/>
</svg>
